<?xml version="1.0" encoding="UTF-8"?>
<svg version="1.1" xmlns="http://www.w3.org/2000/svg" width="500" height="500">
<path d="M0 0 C165 0 330 0 500 0 C500 165 500 330 500 500 C335 500 170 500 0 500 C0 335 0 170 0 0 Z " fill="#E63622" transform="translate(0,0)"/>
<path d="M0 0 C36.96920522 -1.54951368 72.44603712 11.01465114 99.81689453 35.91308594 C120.57868669 55.29930459 135.61315657 78.89455373 142.94726562 106.53613281 C143.25921875 107.68984375 143.57117188 108.84355469 143.89257812 110.03222656 C146.5850694 121.35453454 147.26695839 132.32387774 147.25976562 143.91113281 C147.25983612 144.72744171 147.25990662 145.54375061 147.25997925 146.38479614 C147.13211883 184.99345186 131.47347051 219.4782932 104.82226562 247.09863281 C104.15710938 247.81535156 103.49195313 248.53207031 102.80664062 249.27050781 C88.95911538 263.81622761 71.52227696 273.30664756 52.82226562 280.09863281 C52.03851563 280.39253906 51.25476563 280.68644531 50.44726562 280.98925781 C45.71732848 282.6734021 40.86323673 283.94847646 36.00976562 285.22363281 C34.74519531 285.55621094 33.480625 285.88878906 32.17773438 286.23144531 C13.98567726 290.28034639 -8.26432175 290.17027207 -26.17773438 285.09863281 C-27.3146875 284.80061768 -27.3146875 284.80061768 -28.47460938 284.49658203 C-40.48336934 281.34569867 -51.38043813 277.22425721 -62.17773438 271.09863281 C-62.83725098 270.73286133 -63.49676758 270.36708984 -64.17626953 269.99023438 C-74.59331846 264.14621708 -83.12997309 257.0870175 -91.58105469 248.67626953 C-92.95004599 247.32360564 -94.35368828 246.00616808 -95.76367188 244.69628906 C-106.24638892 234.82046616 -113.51542856 222.43328824 -120.24511719 209.83349609 C-121.02202552 208.3882839 -121.82694551 206.95817367 -122.63867188 205.53222656 C-138.55565031 176.38489344 -139.78732828 134.98036728 -130.92382812 103.51660156 C-127.79881314 93.15027075 -123.34731174 83.58696665 -118.17773438 74.09863281 C-117.61183594 73.0403125 -117.0459375 71.98199219 -116.46289062 70.89160156 C-108.72910561 57.00718282 -98.42469639 44.22635732 -86.17773438 34.09863281 C-85.43910156 33.47214844 -84.70046875 32.84566406 -83.93945312 32.20019531 C-59.83605232 12.23895013 -31.2359843 1.41472395 0 0 Z " fill="#010000" transform="translate(244.177734375,101.9013671875)"/>
<path d="M0 0 C25.25759044 13.84663148 45.12324662 36.68093661 62.01953125 59.49609375 C62.46151855 60.08616211 62.90350586 60.67623047 63.35888672 61.28417969 C90.37792626 97.42913457 115.9532318 143.5325609 116.33203125 189.74609375 C116.36103516 190.91011719 116.39003906 192.07414063 116.41992188 193.2734375 C116.49230167 203.21730756 114.40927953 211.10885755 109.01953125 219.49609375 C107.3359375 221.04296875 107.3359375 221.04296875 105.58203125 222.24609375 C105.00582031 222.6534375 104.42960938 223.06078125 103.8359375 223.48046875 C96.7276871 227.45497435 87.12946515 226.07575103 79.64453125 223.99609375 C43.43673583 211.61035205 16.784912 175.7829919 -3.98046875 145.49609375 C-4.43389648 144.84366699 -4.88732422 144.19124023 -5.35449219 143.51904297 C-29.18043135 109.06802283 -54.5281695 58.44886303 -48.515625 15.1484375 C-46.67867357 7.42019806 -42.91743351 0.40792359 -36.60546875 -4.56640625 C-24.92700723 -10.97504574 -10.74537711 -5.42197928 0 0 Z " fill="#B82B1B" transform="translate(215.98046875,136.50390625)"/>
</svg>
